<svg width="60" height="60" viewBox="0 0 60 60" fill="none" xmlns="http://www.w3.org/2000/svg">
<g clip-path="url(#clip0_7_782)">
<path d="M0 30C0 37.9565 3.16071 45.5871 8.7868 51.2132C14.4129 56.8393 22.0435 60 30 60C37.9565 60 45.5871 56.8393 51.2132 51.2132C56.8393 45.5871 60 37.9565 60 30C60 22.0435 56.8393 14.4129 51.2132 8.7868C45.5871 3.16071 37.9565 0 30 0C22.0435 0 14.4129 3.16071 8.7868 8.7868C3.16071 14.4129 0 22.0435 0 30ZM28.2422 44.1797C27.1406 45.2812 25.3594 45.2812 24.2695 44.1797C23.1797 43.0781 23.168 41.2969 24.2695 40.207L34.4648 30.0117L24.2695 19.8164C23.168 18.7148 23.168 16.9336 24.2695 15.8438C25.3711 14.7539 27.1523 14.7422 28.2422 15.8438L40.4297 28.0078C41.5312 29.1094 41.5312 30.8906 40.4297 31.9805L28.2422 44.1797Z" fill="#AACD06"/>
</g>
<defs>
<clipPath id="clip0_7_782">
<rect width="60" height="60" fill="white"/>
</clipPath>
</defs>
</svg>
