<svg width="60" height="60" viewBox="0 0 60 60" fill="none" xmlns="http://www.w3.org/2000/svg">
<g clip-path="url(#clip0_7_784)">
<path d="M60 30C60 37.9565 56.8393 45.5871 51.2132 51.2132C45.5871 56.8393 37.9565 60 30 60C22.0435 60 14.4129 56.8393 8.7868 51.2132C3.16071 45.5871 0 37.9565 0 30C0 22.0435 3.16071 14.4129 8.7868 8.7868C14.4129 3.16071 22.0435 0 30 0C37.9565 0 45.5871 3.16071 51.2132 8.7868C56.8393 14.4129 60 22.0435 60 30ZM31.7578 44.1797C32.8594 45.2812 34.6406 45.2812 35.7305 44.1797C36.8203 43.0781 36.832 41.2969 35.7305 40.207L25.5352 30.0117L35.7305 19.8164C36.832 18.7148 36.832 16.9336 35.7305 15.8438C34.6289 14.7539 32.8477 14.7422 31.7578 15.8438L19.5703 28.0078C18.4688 29.1094 18.4688 30.8906 19.5703 31.9805L31.7578 44.1797Z" fill="#AACD06"/>
</g>
<defs>
<clipPath id="clip0_7_784">
<rect width="60" height="60" fill="white" transform="matrix(-1 0 0 1 60 0)"/>
</clipPath>
</defs>
</svg>
