<svg width="24" height="27" viewBox="0 0 24 27" fill="none" xmlns="http://www.w3.org/2000/svg">
<g clip-path="url(#clip0_4_746)">
<path d="M12 13.4634C13.8186 13.4634 15.5628 12.7542 16.8487 11.4917C18.1347 10.2293 18.8571 8.51707 18.8571 6.73171C18.8571 4.94635 18.1347 3.23411 16.8487 1.97167C15.5628 0.709232 13.8186 0 12 0C10.1814 0 8.43723 0.709232 7.15127 1.97167C5.8653 3.23411 5.14286 4.94635 5.14286 6.73171C5.14286 8.51707 5.8653 10.2293 7.15127 11.4917C8.43723 12.7542 10.1814 13.4634 12 13.4634ZM9.55179 15.9878C4.275 15.9878 0 20.1846 0 25.3649C0 26.2274 0.7125 26.9268 1.59107 26.9268H22.4089C23.2875 26.9268 24 26.2274 24 25.3649C24 20.1846 19.725 15.9878 14.4482 15.9878H9.55179Z" fill="black"/>
</g>
<defs>
<clipPath id="clip0_4_746">
<rect width="24" height="26.9268" fill="white"/>
</clipPath>
</defs>
</svg>
